<svg xmlns="http://www.w3.org/2000/svg" width="800" height="1200" viewBox="0 0 800 1200">
  <rect width="800" height="1200" fill="#f7efe6"/>
  <rect x="40" y="40" width="720" height="1120" rx="36" fill="#ffffff" stroke="#d8c7aa" stroke-width="4"/>
  <rect x="70" y="80" width="660" height="120" rx="24" fill="#4a2c2a"/>
  <rect x="95" y="106" width="180" height="18" rx="9" fill="#f6d37a"/>
  <rect x="95" y="140" width="260" height="14" rx="7" fill="#f6d37a" opacity="0.8"/>
  <rect x="95" y="230" width="610" height="54" rx="16" fill="#f1ece6"/>
  <rect x="95" y="320" width="610" height="220" rx="24" fill="#f8f4ee" stroke="#e3d8c3" stroke-width="3"/>
  <rect x="120" y="350" width="200" height="18" rx="9" fill="#4a2c2a"/>
  <rect x="120" y="382" width="150" height="14" rx="7" fill="#6b6b6b"/>
  <rect x="120" y="420" width="560" height="14" rx="7" fill="#8b8b8b"/>
  <rect x="120" y="446" width="460" height="14" rx="7" fill="#8b8b8b"/>
  <rect x="95" y="570" width="300" height="210" rx="24" fill="#fffdfb" stroke="#e3d8c3" stroke-width="3"/>
  <rect x="415" y="570" width="290" height="210" rx="24" fill="#fffdfb" stroke="#e3d8c3" stroke-width="3"/>
  <rect x="95" y="820" width="610" height="250" rx="24" fill="#fffdfb" stroke="#e3d8c3" stroke-width="3"/>
  <circle cx="680" cy="100" r="18" fill="#f6d37a"/>
  <text x="120" y="1040" font-family="Segoe UI, Arial, sans-serif" font-size="34" fill="#4a2c2a">Vista móvil</text>
</svg>
